<svg xmlns="http://www.w3.org/2000/svg" xmlns:xlink="http://www.w3.org/1999/xlink" zoomAndPan="magnify" preserveAspectRatio="xMidYMid meet" version="1.0" viewBox="104.59 85.32 165.79 204.42"><defs fill="#000000"><clipPath id="77410b6f8a" fill="#000000"><path d="M 104.585938 89.640625 L 270.328125 89.640625 L 270.328125 285.269531 L 104.585938 285.269531 Z M 104.585938 89.640625 " clip-rule="nonzero" fill="#000000"/></clipPath><clipPath id="4d541b62d5" fill="#000000"><path d="M 179 89.640625 L 196 89.640625 L 196 175 L 179 175 Z M 179 89.640625 " clip-rule="nonzero" fill="#000000"/></clipPath><clipPath id="071df87c38" fill="#000000"><path d="M 179 199 L 196 199 L 196 285.269531 L 179 285.269531 Z M 179 199 " clip-rule="nonzero" fill="#000000"/></clipPath><clipPath id="af83bfb43a" fill="#000000"><path d="M 255 127 L 270.328125 127 L 270.328125 248 L 255 248 Z M 255 127 " clip-rule="nonzero" fill="#000000"/></clipPath><clipPath id="c4d3fcb83e" fill="#000000"><path d="M 104.585938 127 L 120 127 L 120 248 L 104.585938 248 Z M 104.585938 127 " clip-rule="nonzero" fill="#000000"/></clipPath><clipPath id="516c511c37" fill="#000000"><path d="M 162.71875 85.320312 L 212.273438 85.320312 L 212.273438 289.679688 L 162.71875 289.679688 Z M 162.71875 85.320312 " clip-rule="nonzero" fill="#000000"/></clipPath><clipPath id="887d7a5197" fill="#000000"><path d="M 191 181 L 206.851562 181 L 206.851562 199.714844 L 191 199.714844 Z M 191 181 " clip-rule="nonzero" fill="#000000"/></clipPath><clipPath id="b7a620afee" fill="#000000"><path d="M 168.265625 175.261719 L 199 175.261719 L 199 195 L 168.265625 195 Z M 168.265625 175.261719 " clip-rule="nonzero" fill="#000000"/></clipPath></defs><g clip-path="url(#77410b6f8a)"><path fill="#ffffff" d="M 104.621094 127.585938 L 119.597656 136.570312 L 119.597656 237.425781 L 104.621094 247.410156 Z M 142.566406 187.496094 L 142.566406 266.382812 L 157.542969 256.398438 L 157.542969 118.597656 L 142.566406 108.613281 Z M 217.457031 187.496094 L 217.457031 256.398438 L 233.433594 266.382812 L 233.433594 108.613281 L 217.457031 118.597656 Z M 255.398438 187.496094 L 255.398438 237.425781 L 270.378906 247.410156 L 270.378906 127.585938 L 255.398438 136.570312 Z M 179.511719 199.480469 L 179.511719 285.355469 L 195.488281 285.355469 L 195.488281 199.480469 Z M 179.511719 174.515625 L 179.511719 89.640625 L 195.488281 89.640625 L 195.488281 174.515625 Z M 179.511719 174.515625 " fill-opacity="1" fill-rule="evenodd"/></g><g clip-path="url(#4d541b62d5)"><path fill="#ffffff" d="M 179.511719 89.640625 L 195.488281 89.640625 L 195.488281 174.515625 L 179.511719 174.515625 Z M 179.511719 89.640625 " fill-opacity="1" fill-rule="evenodd"/></g><g clip-path="url(#071df87c38)"><path fill="#ffffff" d="M 179.511719 199.480469 L 195.488281 199.480469 L 195.488281 285.355469 L 179.511719 285.355469 Z M 179.511719 199.480469 " fill-opacity="1" fill-rule="evenodd"/></g><g clip-path="url(#af83bfb43a)"><path fill="#ffffff" d="M 255.398438 136.570312 L 255.398438 237.425781 L 270.378906 247.410156 L 270.378906 127.585938 Z M 255.398438 136.570312 " fill-opacity="1" fill-rule="evenodd"/></g><g clip-path="url(#c4d3fcb83e)"><path fill="#ffffff" d="M 119.597656 237.425781 L 119.597656 136.570312 L 104.621094 127.585938 L 104.621094 247.410156 Z M 119.597656 237.425781 " fill-opacity="1" fill-rule="evenodd"/></g><g clip-path="url(#516c511c37)"><path fill="#ffffff" d="M 212.273438 85.320312 L 212.273438 289.738281 L 162.71875 289.738281 L 162.71875 85.320312 Z M 212.273438 85.320312 " fill-opacity="1" fill-rule="nonzero"/></g><g clip-path="url(#887d7a5197)"><path fill="#ffffff" d="M 206.667969 185.449219 C 205.234375 185.167969 202.355469 184.269531 199.257812 181.417969 C 196.15625 184.269531 193.273438 185.167969 191.828125 185.453125 C 191.835938 185.453125 191.816406 189.074219 191.816406 189.074219 C 191.789062 191.097656 192.257812 193 193.21875 194.78125 C 193.863281 195.957031 194.710938 196.96875 195.753906 197.8125 C 196.800781 198.652344 197.96875 199.265625 199.253906 199.648438 C 200.539062 199.261719 201.707031 198.648438 202.75 197.804688 C 203.796875 196.964844 204.644531 195.957031 205.296875 194.78125 C 206.257812 193 206.722656 191.097656 206.695312 189.074219 C 206.695312 189.074219 206.675781 185.453125 206.667969 185.449219 Z M 204.503906 189.070312 C 204.53125 190.707031 204.160156 192.25 203.390625 193.695312 C 202.445312 195.402344 201.066406 196.621094 199.253906 197.34375 C 197.441406 196.621094 196.066406 195.402344 195.125 193.695312 C 194.351562 192.25 193.980469 190.707031 194.011719 189.070312 L 194.011719 187.132812 C 195.914062 186.472656 197.664062 185.519531 199.253906 184.28125 C 200.847656 185.519531 202.59375 186.472656 204.5 187.132812 Z M 204.503906 189.070312 " fill-opacity="1" fill-rule="nonzero"/></g><path fill="#ffffff" d="M 201.578125 189.492188 L 201.320312 189.492188 L 201.320312 188.855469 C 201.320312 188.582031 201.269531 188.320312 201.164062 188.066406 C 201.058594 187.8125 200.910156 187.589844 200.714844 187.398438 C 200.523438 187.203125 200.296875 187.054688 200.046875 186.949219 C 199.792969 186.84375 199.53125 186.792969 199.257812 186.792969 C 198.980469 186.792969 198.71875 186.84375 198.464844 186.949219 C 198.214844 187.054688 197.988281 187.203125 197.796875 187.398438 C 197.601562 187.589844 197.453125 187.8125 197.347656 188.066406 C 197.246094 188.320312 197.191406 188.582031 197.191406 188.855469 L 197.191406 189.492188 L 196.933594 189.492188 C 196.726562 189.492188 196.554688 189.5625 196.410156 189.707031 C 196.261719 189.851562 196.191406 190.027344 196.191406 190.230469 L 196.191406 193.53125 C 196.191406 193.734375 196.261719 193.910156 196.40625 194.054688 C 196.550781 194.199219 196.726562 194.273438 196.933594 194.273438 L 201.578125 194.273438 C 201.785156 194.273438 201.957031 194.203125 202.101562 194.054688 C 202.246094 193.910156 202.320312 193.738281 202.320312 193.53125 L 202.320312 190.234375 C 202.320312 190.027344 202.246094 189.855469 202.101562 189.707031 C 201.957031 189.5625 201.785156 189.492188 201.578125 189.492188 Z M 198.675781 188.855469 C 198.671875 188.691406 198.726562 188.554688 198.839844 188.4375 C 198.953125 188.320312 199.09375 188.261719 199.253906 188.261719 C 199.417969 188.261719 199.558594 188.320312 199.671875 188.4375 C 199.785156 188.554688 199.839844 188.691406 199.835938 188.855469 L 199.835938 189.492188 L 198.675781 189.492188 Z M 200.839844 192.789062 L 197.671875 192.789062 L 197.671875 190.972656 L 200.839844 190.972656 Z M 200.839844 192.789062 " fill-opacity="1" fill-rule="nonzero"/><path fill="#ffffff" d="M 199.855469 191.882812 C 199.855469 192.046875 199.796875 192.1875 199.679688 192.304688 C 199.5625 192.421875 199.421875 192.480469 199.253906 192.480469 C 199.089844 192.480469 198.949219 192.421875 198.832031 192.304688 C 198.714844 192.1875 198.65625 192.046875 198.65625 191.882812 C 198.65625 191.714844 198.714844 191.574219 198.832031 191.457031 C 198.949219 191.339844 199.089844 191.28125 199.253906 191.28125 C 199.421875 191.28125 199.5625 191.339844 199.679688 191.457031 C 199.796875 191.574219 199.855469 191.714844 199.855469 191.882812 Z M 199.855469 191.882812 " fill-opacity="1" fill-rule="nonzero"/><path fill="#ffffff" d="M 172.734375 179.914062 L 179.273438 179.914062 L 179.273438 183.375 L 172.734375 183.375 Z M 172.734375 179.914062 " fill-opacity="1" fill-rule="nonzero"/><g clip-path="url(#b7a620afee)"><path fill="#ffffff" d="M 197.773438 175.34375 L 169.007812 175.34375 C 168.804688 175.34375 168.628906 175.417969 168.484375 175.5625 C 168.339844 175.707031 168.265625 175.882812 168.265625 176.085938 L 168.265625 193.960938 C 168.265625 194.164062 168.339844 194.339844 168.484375 194.484375 C 168.628906 194.628906 168.804688 194.699219 169.007812 194.699219 L 191.511719 194.699219 C 190.707031 192.910156 190.3125 191.035156 190.332031 189.074219 L 190.332031 185.53125 C 190.328125 185.171875 190.433594 184.847656 190.652344 184.566406 C 190.871094 184.28125 191.15625 184.09375 191.503906 184.007812 L 186.828125 184.007812 C 186.621094 184.007812 186.449219 183.9375 186.304688 183.792969 C 186.160156 183.648438 186.085938 183.472656 186.085938 183.269531 C 186.085938 183.0625 186.160156 182.886719 186.304688 182.742188 C 186.449219 182.597656 186.621094 182.527344 186.828125 182.527344 L 195.273438 182.527344 C 196.359375 181.894531 197.363281 181.152344 198.28125 180.300781 C 198.351562 180.234375 198.429688 180.175781 198.515625 180.125 L 198.515625 176.085938 C 198.515625 175.882812 198.441406 175.707031 198.296875 175.5625 C 198.152344 175.417969 197.976562 175.34375 197.773438 175.34375 Z M 171.253906 179.914062 C 171.253906 179.71875 171.289062 179.53125 171.367188 179.347656 C 171.441406 179.167969 171.546875 179.007812 171.6875 178.867188 C 171.828125 178.726562 171.988281 178.621094 172.167969 178.546875 C 172.351562 178.46875 172.539062 178.433594 172.734375 178.433594 L 179.273438 178.433594 C 179.46875 178.433594 179.65625 178.46875 179.839844 178.546875 C 180.019531 178.621094 180.179688 178.726562 180.320312 178.867188 C 180.460938 179.003906 180.566406 179.167969 180.640625 179.347656 C 180.71875 179.53125 180.753906 179.71875 180.757812 179.914062 L 180.757812 183.375 C 180.757812 183.574219 180.71875 183.761719 180.644531 183.945312 C 180.566406 184.125 180.460938 184.285156 180.320312 184.425781 C 180.183594 184.5625 180.019531 184.671875 179.839844 184.746094 C 179.65625 184.820312 179.46875 184.859375 179.273438 184.859375 L 172.734375 184.859375 C 172.539062 184.859375 172.351562 184.820312 172.167969 184.746094 C 171.988281 184.671875 171.828125 184.5625 171.6875 184.425781 C 171.550781 184.285156 171.441406 184.125 171.367188 183.945312 C 171.292969 183.761719 171.253906 183.574219 171.253906 183.375 Z M 174.773438 192.359375 L 171.027344 192.359375 C 170.820312 192.359375 170.648438 192.285156 170.503906 192.140625 C 170.359375 191.996094 170.285156 191.820312 170.285156 191.617188 C 170.285156 191.410156 170.359375 191.238281 170.503906 191.09375 C 170.648438 190.949219 170.820312 190.875 171.027344 190.875 L 174.773438 190.875 C 174.976562 190.875 175.152344 190.949219 175.296875 191.09375 C 175.441406 191.238281 175.511719 191.410156 175.511719 191.617188 C 175.511719 191.820312 175.441406 191.996094 175.296875 192.140625 C 175.152344 192.285156 174.976562 192.359375 174.773438 192.359375 Z M 181.765625 192.359375 L 178.019531 192.359375 C 177.816406 192.359375 177.640625 192.285156 177.496094 192.140625 C 177.351562 191.996094 177.277344 191.820312 177.277344 191.617188 C 177.277344 191.410156 177.351562 191.238281 177.496094 191.09375 C 177.640625 190.949219 177.816406 190.875 178.019531 190.875 L 181.765625 190.875 C 181.972656 190.875 182.144531 190.949219 182.289062 191.09375 C 182.4375 191.238281 182.507812 191.410156 182.507812 191.617188 C 182.507812 191.820312 182.4375 191.996094 182.289062 192.140625 C 182.144531 192.285156 181.972656 192.359375 181.765625 192.359375 Z M 188.761719 190.875 C 188.964844 190.875 189.140625 190.949219 189.285156 191.09375 C 189.429688 191.238281 189.503906 191.410156 189.503906 191.617188 C 189.503906 191.820312 189.429688 191.996094 189.285156 192.140625 C 189.140625 192.285156 188.964844 192.359375 188.761719 192.359375 L 185.015625 192.359375 C 184.808594 192.359375 184.636719 192.285156 184.492188 192.140625 C 184.347656 191.996094 184.273438 191.820312 184.273438 191.617188 C 184.273438 191.410156 184.347656 191.238281 184.492188 191.09375 C 184.636719 190.949219 184.808594 190.875 185.015625 190.875 Z M 195.574219 180.765625 L 190.988281 180.765625 C 190.78125 180.765625 190.609375 180.695312 190.464844 180.550781 C 190.320312 180.402344 190.246094 180.230469 190.246094 180.023438 C 190.246094 179.820312 190.320312 179.644531 190.464844 179.5 C 190.609375 179.355469 190.78125 179.285156 190.988281 179.285156 L 195.574219 179.285156 C 195.777344 179.285156 195.953125 179.355469 196.097656 179.5 C 196.242188 179.644531 196.316406 179.820312 196.316406 180.023438 C 196.316406 180.230469 196.242188 180.402344 196.097656 180.550781 C 195.953125 180.695312 195.777344 180.765625 195.574219 180.765625 Z M 195.574219 180.765625 " fill-opacity="1" fill-rule="nonzero"/></g></svg>